Coordinates
version=1
nRows=23
nColumns=23
inDegrees=yes

Units are S.I. units (second, meters, Newtons, ...)
If the header above contains a line with 'inDegrees', this indicates whether rotational values are in degrees (yes) or radians (no).

endheader
time	pelvis_tilt	pelvis_list	pelvis_rotation	pelvis_tx	pelvis_ty	pelvis_tz	hip_flexion_r	hip_adduction_r	hip_rotation_r	knee_angle_r	knee_angle_r_beta	ankle_angle_r	subtalar_angle_r	mtp_angle_r	hip_flexion_l	hip_adduction_l	hip_rotation_l	knee_angle_l	knee_angle_l_beta	ankle_angle_l	subtalar_angle_l	mtp_angle_l
      0.00000000	     -3.90916149	      0.72065074	      3.59348198	      2.23445281	      1.07892682	      0.99739321	     -6.80232665	     -1.42380925	    -16.86408985	     23.44765982	      0.40923887	      3.43752229	      1.54614320	      0.00000000	     29.99480788	      3.86677255	      6.42929415	     82.19671042	      1.43460323	      4.62489830	     -8.42873563	      0.00000000
      0.00666667	     -4.14185631	      0.54505042	      4.18543503	      2.23599037	      1.08365515	      0.99624113	     -7.77022808	     -1.28101497	    -18.18341547	     22.62946467	      0.39495867	     -0.28606120	      1.65177746	      0.00000000	     30.51379491	      3.76361755	      6.42671084	     79.15107243	      1.38144682	      4.88756938	     -8.80980035	      0.00000000
      0.01333333	     -4.36000886	      0.41421835	      4.60257868	      2.23757055	      1.08828430	      0.99544654	     -8.72750517	     -1.14193511	    -19.20985612	     21.80322734	      0.38053810	     -3.98289337	      1.55203088	      0.00000000	     30.85774197	      3.55660513	      6.17780789	     75.92645450	      1.32516662	      5.25478260	     -8.89684433	      0.00000000
      0.02000000	     -4.60101140	      0.29382628	      5.00932752	      2.23908846	      1.09254682	      0.99471135	     -9.58063274	     -1.02481952	    -20.25759834	     21.14365570	      0.36902641	     -7.44588975	      1.35772418	      0.00000000	     31.11170269	      3.36578418	      5.90387659	     72.58470689	      1.26684212	      5.72140730	     -8.84499072	      0.00000000
      0.02666667	     -4.87657346	      0.22743069	      5.45727089	      2.24067008	      1.09634010	      0.99388465	    -10.32430714	     -0.97778574	    -21.37785291	     20.68143173	      0.36095908	    -10.62383443	      1.05730262	      0.00000000	     31.27585326	      3.28932730	      5.64365548	     69.12115308	      1.20639170	      6.28999802	     -8.59654640	      0.00000000
      0.03333333	     -5.37114890	      0.11531502	      5.75327855	      2.24197763	      1.09941941	      0.99324322	    -10.60751653	     -1.01505117	    -22.45168863	     20.67787547	      0.36089701	    -13.32214684	      0.85630153	      0.00000000	     31.61368822	      3.10004414	      5.20936126	     65.57599965	      1.14451710	      6.81259219	     -8.19253627	      0.00000000
      0.04000000	     -5.24342908	      0.06048881	      6.31593369	      2.24347763	      1.10280088	      0.99245002	    -11.68990343	     -0.83463582	    -23.37674101	     20.40151384	      0.35607359	    -15.86515182	     -0.27593481	      0.00000000	     31.15757734	      3.05214000	      4.99215895	     61.87179494	      1.07986654	      7.42330667	     -7.48275547	      0.00000000
      0.04666667	     -5.68012807	      0.00473993	      6.77026377	      2.24461183	      1.10492128	      0.99161325	    -11.87504794	     -0.93234964	    -24.53766852	     20.85044522	      0.36390892	    -17.71734665	     -1.01017191	      0.00000000	     31.26466374	      3.06434963	      4.66930084	     58.11365758	      1.01427467	      7.96094798	     -6.66911124	      0.00000000
      0.05333333	     -5.80975841	      0.06215609	      7.30650316	      2.24564340	      1.10688253	      0.99065295	    -12.33648795	     -1.11348992	    -25.71261863	     21.50163561	      0.37527434	    -19.05329605	     -2.24905552	      0.00000000	     30.93183393	      3.21819130	      4.36809279	     54.21575803	      0.94624348	      8.54669259	     -5.47963966	      0.00000000
      0.06000000	     -5.96703109	      0.13378742	      7.82672197	      2.24652509	      1.10833415	      0.98974364	    -12.69650147	     -1.31571289	    -26.72947136	     22.34794417	      0.39004521	    -19.94670499	     -3.57396034	      0.00000000	     30.55096852	      3.39682775	      4.02583869	     50.22146309	      0.87652989	      9.05542640	     -4.06890959	      0.00000000
      0.06666667	     -6.12487483	      0.25300721	      8.37646242	      2.24730484	      1.10927749	      0.98872771	    -12.98797810	     -1.58389778	    -27.66140007	     23.41929416	      0.40874379	    -20.35138758	     -5.06533577	      0.00000000	     30.08297404	      3.67399960	      3.69800339	     46.14483224	      0.80537926	      9.51693443	     -2.41983051	      0.00000000
      0.07333333	     -6.05188569	      0.44325476	      8.81287324	      2.24801016	      1.11006868	      0.98782135	    -13.47228389	     -1.91290641	    -28.33108283	     24.62898144	      0.42985682	    -20.38530498	     -6.60218744	      0.00000000	     29.28417354	      3.86793959	      3.03167052	     42.02382283	      0.73345407	     10.10377443	     -0.00661257	      0.00000000
      0.08000000	     -6.13380093	      0.73540136	      9.32626700	      2.24854119	      1.11020347	      0.98664405	    -13.73172213	     -2.40137281	    -28.98350035	     26.09257612	      0.45540136	    -20.12135993	     -8.30070042	      0.00000000	     28.52567931	      4.40262607	      2.75217431	     37.79703704	      0.65968274	     10.48023809	      1.90388843	      0.00000000
      0.08666667	     -6.14930157	      1.05526042	      9.85926633	      2.24893331	      1.10993384	      0.98535311	    -14.00589989	     -2.91228613	    -29.49336659	     27.72282546	      0.48385458	    -19.61367812	    -10.08525556	      0.00000000	     27.62375338	      5.03652736	      2.67382692	     33.58517057	      0.58617181	     10.85325721	      3.86848529	      0.00000000
      0.09333333	     -6.04102858	      1.46724388	     10.32094757	      2.24934627	      1.10939393	      0.98417799	    -14.37606931	     -3.49472926	    -29.78984982	     29.46002155	      0.51417437	    -18.98015558	    -11.82798169	      0.00000000	     26.48099664	      5.74222847	      2.68191389	     29.37896238	      0.51275962	     11.21994755	      5.76000585	      0.00000000
      0.10000000	     -5.79095027	      1.95351123	     10.72522684	      2.24968955	      1.10859436	      0.98304830	    -14.84015189	     -4.13805562	    -29.91863120	     31.33516938	      0.54690188	    -18.30073562	    -13.57949812	      0.00000000	     25.09664142	      6.52577996	      2.92314854	     25.21669842	      0.44011441	     11.52029324	      7.35411045	      0.00000000
      0.10666667	     -5.35641534	      2.45174405	     11.14543500	      2.24994468	      1.10758562	      0.98197510	    -15.43791318	     -4.71311010	    -29.88938635	     33.30075363	      0.58120779	    -17.63461800	    -15.32963854	      0.00000000	     23.41646726	      7.38727757	      3.87523779	     21.10423590	      0.36833840	     11.65965303	      8.01451123	      0.00000000
      0.11333333	     -5.19940015	      2.83807756	     11.56380576	      2.24999557	      1.10554973	      0.98095444	    -15.57713266	     -5.25069605	    -29.70519451	     35.57619574	      0.62092175	    -16.92717472	    -17.22042282	      0.00000000	     22.24626546	      8.06946536	      4.53720899	     17.62661152	      0.30764241	     12.08238303	      9.25029726	      0.00000000
      0.12000000	     -4.48749224	      3.36759196	     11.83558462	      2.25011508	      1.10396493	      0.98039670	    -16.27597336	     -5.75835402	    -29.27959872	     37.79554602	      0.65965672	    -16.56718947	    -19.20432736	      0.00000000	     20.20947033	      8.78791581	      6.07023156	     13.90532079	      0.24269363	     11.79482680	      8.49985053	      0.00000000
      0.12666667	     -4.04841866	      3.79111888	     12.11943990	      2.24993628	      1.10135660	      0.97987786	    -16.48541660	     -6.23465712	    -28.73234072	     40.36606036	      0.70452066	    -16.20561296	    -21.13428491	      0.00000000	     18.84716470	      9.31248341	      6.91443398	     11.17574531	      0.19505355	     11.86431220	      8.61699596	      0.00000000
      0.13333333	     -3.78618602	      4.19951357	     12.43785512	      2.24944857	      1.09797633	      0.97922095	    -16.36340303	     -6.79326472	    -28.23241777	     43.23505598	      0.75459408	    -15.85083483	    -22.86728754	      0.00000000	     18.00939969	      9.81022919	      7.18357393	      9.38246829	      0.16375496	     12.11497689	      9.06157860	      0.00000000
      0.14000000	     -3.44870323	      4.66106634	     12.71826676	      2.24864292	      1.09429767	      0.97873040	    -16.17108966	     -7.34002543	    -27.51661173	     46.28813473	      0.80788036	    -15.66810837	    -24.54232008	      0.00000000	     17.25889942	     10.32832838	      7.35914418	      8.20787637	      0.14325447	     12.15336613	      9.07640010	      0.00000000
      0.14666667	     -3.19220398	      5.08931707	     13.01402288	      2.24752764	      1.09013709	      0.97831083	    -15.76006803	     -7.87780650	    -26.80246798	     49.53011897	      0.86446365	    -15.53161693	    -25.96609820	      0.00000000	     16.83972753	     10.83378058	      7.38941010	      7.79487612	      0.13604625	     12.08894938	      8.81106795	      0.00000000
